<svg width="100" height="100" viewBox="0 0 100 100" fill="none" xmlns="http://www.w3.org/2000/svg">
<path d="M24 0H100V76C100 89.255 89.255 100 76 100H0V24C0 10.745 10.745 0 24 0Z" fill="white"/>
<path d="M16.619 29.35C14.3479 41.68 16.248 55.13 22.7439 66.0321C29.2391 76.9341 38.5724 83.0443 48.5707 83.6821C40.8894 75.5621 36.4358 63.306 36.4358 49.6545C36.4358 46.1623 36.7516 42.7883 37.3544 39.5295C31.4169 33.2801 24.0872 29.8174 16.619 29.35Z" fill="#FDC9AB"/>
<path d="M50.3228 15.7C42.6073 23.7865 37.6793 35.9664 37.6194 49.6171C37.5603 63.2678 42.381 75.5457 50.0265 83.6983C47.8098 71.3574 49.811 57.8607 56.3544 46.9875C58.0165 44.2256 59.8855 41.7764 61.9108 39.6531C60.1873 30.1222 56.0433 21.7892 50.3228 15.7Z" fill="#D9799E"/>
<path d="M83.4038 29.7C57.0801 34.4887 47.1938 61.213 51.008 83.7124C77.4881 78.9229 87.267 52.341 83.4038 29.7Z" fill="#FB929E"/>
</svg>
